<?xml version="1.0" encoding="UTF-8"?>
<svg id="Layer_1" xmlns="http://www.w3.org/2000/svg" version="1.1" viewBox="0 0 911.8 355.9">
  <!-- Generator: Adobe Illustrator 30.1.0, SVG Export Plug-In . SVG Version: 2.1.1 Build 136)  -->
  <defs>
    <style>
      .st0 {
        fill: #fff;
      }
    </style>
  </defs>
  <path class="st0" d="M911.1,240.5c-.8-1.4-2.4-3-6.2-2.9-6.9.3-11.2,7.8-14.1,12.8l-.5.9c-3.6,6.2-7.6,11.7-12.7,17.6-5.5,6.3-11.5,12.4-18,18.2-1.3,1.1-2.6,2.4-4,3.8-4.3,4.2-9.2,8.9-13.8,10.8-1.7.7-3.4,1.5-5.1,2.2-7.4,3.3-13.7,6.2-21.4,4.1-8.2-4.5-12.5-16.7-9.3-25.9,1.7-1,7.7-2.8,10.7-3.6,2.6-.8,4.1-1.2,4.9-1.5,5.8-2.5,11.5-5.3,16.8-8.3,10.8-6.1,20.6-13.4,29.1-21.6,18.7-18,33.6-43.9,19.3-62.9-4.7-6.3-15.8-11.8-32.6-8.4-16.7,3.3-31.9,12.3-46.3,27.6-1.8,1.9-3.6,3.8-5.5,5.7-5.5,5.7-11.2,11.6-16.3,17.9-4.4,5.5-7.8,11.6-11,17.4-1.4,2.6-2.9,5.3-4.5,7.9l-1.5,2.5c-4.8,8.2-9.4,15.9-15.8,22.9l-.5.5c-5.6,6.1-14,15.3-21.5,18-4,1.4-5.7.7-6.7,0h-.2c-1.5-.9-1.6-1.9-1.5-5.6v-.5s17.5-45.1,17.5-45.1c16-42.6,36.5-84.2,61-123.6l.2-.3v-.4c2.8-9.9,1.8-17.5-2.9-23.4l-.3-.3c-7.4-6.3-15.1-8.3-21.7-5.8l-.9.3-41.7,81c-9.5,16.8-16.7,33.6-24.3,51.5-2.2,5.1-4.4,10.3-6.7,15.5-11,18.3-27.1,34.8-49.1,50.5l-.3.3c-7.8,8-22.2,15.9-34.3,15.4-6.1-.3-11-2.6-14.5-7-6-7.3-5.8-21.5.2-29.9,25.5-.8,49.1-11.8,68.2-31.9,13.7-11,20.6-28,18.4-45.5-.9-7.3-5.8-14.1-12.3-17.5-8.6-4.4-15.1-2.5-22.7-.3-10.8,3.1-21.2,8-30.2,14-19.2,12.8-36.2,32.1-45.4,51.4-7.4,15.4-10.1,29.5-8,42,1.2,7.2,2.4,13.6,5,19.8,3.1,7.3,6.6,9.2,12.4,12,1,.5,2,.9,2.9,1.4,5.7,2.7,11,5.3,17.7,6.4,11,1.9,18.6,1.6,23.2-.8,19.6-10.4,36.1-23.2,52.4-36.6-1.1,11,.4,23.2,12.5,31.9h.1c12.2,7.8,26.9,7,37.5-1.9,8.4-4.7,13.8-11.8,19.5-19.2,2.6-3.4,5.2-6.8,8.3-10.1,3,17.2,11,28.5,24.6,34.4,8.4,6.1,17.9,9.1,27.7,9.1s15.9-2,23.6-5.9c14.6-6.2,28.3-17.5,40.7-33.5,3-3.9,6.3-7.8,9.5-11.5,4.5-5.2,9.1-10.6,13.2-16.4h0c6.8-9.7,9.1-15.9,7.1-19.5h0ZM807.7,266.1c.2-6,1.8-13.1,3.5-17.9,4.2-12.2,11.1-24.1,19.6-33.6,8.1-9.1,16.9-17.2,26.3-17.2s4.2.4,6.3,1.2c3.2,1.2,5.3,3.4,6.4,6.2,1.6,4.2.8,9.9-1.9,15.3-2.7,5.3-6.2,9.6-11.5,14.6-1.2,1.1-2.5,2.3-4.2,3.7-8.4,7.2-14.9,12.1-21.8,16.6-1.7,1.1-16.3,8.3-22.7,11.1h0ZM610.3,256c10.3-24.6,26.3-46.3,45.4-61.4,5.3-3.3,9-4,12.5-2.4,1.6,1,6.2,4.3,5.8,10.1-1,11.2-5.2,20.9-12.8,29.4-16.2,16.1-33.3,24.2-51,24.3h0Z"/>
  <path class="st0" d="M567.3,263.3l-.3-.5-24.7-16.5c-1.7-5.4.2-10.6,2.6-15.4,8.3-13.6,14.8-27.2,21.9-42.3,7.7-16.4,16.3-32.5,25.5-47.9,4.4-7.4,9.6-14.4,14.7-21.2,4.6-6.2,9.3-12.5,13.4-19.2,2.1-3.3,3.8-6.9,5.3-10.3,3.7-7.9,2.2-15.8-3.8-20.2-4.2-3.1-8.7-4.2-13.3-3.3-12.2,2.3-22,18.2-28.6,28.8-1.1,1.7-2,3.2-2.8,4.4-13.8,21-24.5,39.8-32.7,57.6,0,.2-26.5,57.4-32.1,69.6l-34.9-16.2.5-.6c14.9-17.9,28.9-34.9,39.9-54.7,6.6-11.7,13.5-25.9,14.9-42.2,3.6-20.1-3-39-18.6-53.3-8.7-8-25.1-10.9-37.6-11-6.7,0-13.5,1-20.4,3.1-17.7,5.3-33.8,17.1-47.2,27.8-19.6,15.7-37.1,35.1-52.2,57.8-7.8,10.4-11,20.5-9.5,31.1v.9c.1,0,.8.6.8.6,3,2.8,6.3,3.9,9.7,3.4h.3c0,0,.3-.2.3-.2,2.4-1,5.3-2.5,7.4-5.5,7.7-8,16.3-18,22.1-31.4,8.4-19.3,22.2-36.7,40.2-50.4,14.1-10.8,29.4-20.9,46.4-22.3,14.9-1.2,25.5,15.4,27.5,27.8,3.6,22.8-8,39.2-20.2,56.7-4.2,6-8.6,12.2-12.3,18.8-7.9,13.8-15.8,25.1-24.6,35.2-10.2-3-19.2-5.1-29.1-6.6-15.4-4.6-29.2-4.5-42.1.2-6.4,2.1-10.4,8.8-8.6,14.6,2,6.5,7.3,9.4,15.6,8.5,3.6,0,7.3-.3,10.8-.5,12-.7,23.5-1.4,35.5,2.2-33.7,43.8-78.6,75.8-126.7,90.4-28.9,7.5-56.8,12.4-84.2,14.6l-.2-1s-56,2.6-143.4-21.8c-17.8-5-19.4-7-19.9-9-.4-1.7-.2-5.4,1-7.3,2.8-4.5,5.8-8.8,8.9-13h.1c0-.1.2-.4.2-.4,4.4-5.5,8.8-11.1,13-16.8,3.5-4.3,7.1-8.6,10.7-12.9,14.8-17.7,27.7-35.4,41-54.2,25.9-36.3,65.4-96.4,73-139.8,1.7-9.8-.2-19.3-6.7-27-6.3-7.4-36.8-35.8-38.8-15.7-.8,8.2-2.6,14.8-5,23.3-13,46.2-31.5,89.3-52.7,132-16,32.3-31.2,64.2-49.9,94.9-3.8,5.1-7.8,9.8-12,14.2-4.6,4.9-9.2,9.9-13.6,14.8-3.1,3.4-6.3,6.9-9.4,10.4-4.8,5.2-8.5,9.9-10.8,13.8-2,3.4-2.3,6.5-1,9,2.7,5.1,11,5.9,17.2,6.5.8,0,1.5.1,2.2.2,4.9.5,10,2,15,3.4.8.2,1.7.5,2.5.7,14.3,4,29.2,6.7,43.7,9.4,5.7,1.1,11.6,2.1,17.4,3.3,33.5,6.7,69.5,12.8,106.9,12.8s1.8,0,2.7,0l54.8-6.1h.1c32.5-5.3,62.1-13.3,88-23.8l36.7-21.2.3-.2c28.7-22,52-49.6,71.1-73.8,15.5,5.1,28.8,10.3,42.1,18.2-.8,2-1.5,4-2.3,5.9-2.3,5.9-4.7,12.1-6.5,18.7-9.6,23.9-11.5,46.1-5.7,66.1,1.7,5.4,5.2,8.5,9.6,8.6,4.9.1,9.8-3.8,12-9.7,2-5.4,2.5-11.1,3.1-16.6.1-1.7.3-3.4.5-5,1.7-14,4-25.4,7.2-34.9v-.4c5.2-15.1,9-18.3,11.3-18.3h0c2,0,6.4,3.2,9.4,5.3,2.2,1.5,4.2,3,5.9,3.8l1,.5c6.1,3,13.1,6.1,17.7,4.7,2.5-.8,4.6-2.6,6-5.1l.5-.9-.3-1c-.7-2.5-1.6-4.6-3.2-7.3h0Z"/>
  <path class="st0" d="M197.9,175.5l-36.4,69.9-1.1,3.1c-4.1,11.3-8.4,23-7.3,35.4.4,15.2,10.4,25.9,24.9,26.6,2,.3,4,.4,6,.4,12.3,0,23.9-4.9,32.7-13.8,14.7-11.5,26.7-25.9,34.8-41.7l.2-.4v-.5c.2-.9.5-1.9.8-2.9.8-2.4,1.9-6.1-1.8-8.7-3-2.8-7.9-2.2-11.7,1.5l-.2.2c-2.1,2.7-4.2,5.4-6.3,8.1-4.1,5.3-8.4,10.7-12.7,16.1-2.4,3-5.2,5.3-8.1,7.8-2.2,1.8-4.4,3.7-6.5,5.9-6.6,6.8-13.6,13.2-20.9,10.5-2.5-.9-3.7-2.8-3.6-5.8.1-6.2,4.6-13.9,8.1-20,1.1-1.9,2.2-3.8,3.1-5.5,3.2-6.1,6.6-12.1,9.9-18,2.1-3.7,4.3-7.6,6.4-11.4,6.3-11.5,13.7-24.9,20.5-38.8,2.9-5,3.6-10.6,2.1-15.5-1.3-4.2-4.2-7.5-8.3-9.5-8.9-5-18.7-2.3-24.4,6.9h0Z"/>
  <path class="st0" d="M228.2,148.5h0c4.5,0,8.9-2.1,11.9-5.5,1.5-1.7,2.7-3.8,3.7-6.4,1.2-3.1,1.9-6.4,2.5-9.5.2-1.2.5-2.3.7-3.4,3.5-14.9,0-25.5-9.5-28.9-4.1-1.5-7.8-1.3-11.1.6-5.6,3.2-9.4,10.7-11.9,23.2-1.3,6.7-2.7,18.9,2.8,25,2.8,3.1,6.6,4.8,10.8,4.8h0Z"/>
</svg>