<?xml version="1.0" encoding="UTF-8"?>
<svg id="Layer_1" data-name="Layer 1" xmlns="http://www.w3.org/2000/svg" viewBox="0 0 904.44 363.51">
  <defs>
    <style>
      .cls-1 {
        fill: #1d2a5b;
      }
    </style>
  </defs>
  <path class="cls-1" d="M547.35,224.09c-6.9,15.67-8.59,33.29-.19,48.41,15.53,27.94,53.7,28.56,80.28,18.38,20.26-7.76,38.44-18.25,55.46-32.48,2.53,3.54,2.41,8.46,3.85,12.13,7.19,18.31,27.49,24.12,44.41,15.81,14.07-6.91,27.42-12.67,39.09-23.25,5.39-4.89,13.69,15.9,31.94,21.81,29.63,9.6,59.73-.37,80.86-21.87,7.13-7.25,13.07-14.54,19.56-22.47,2.09-2.55,3.07-8.75-.84-9.95-4.04-1.24-9.42,2.38-12.25,5.63-16.85,19.34-47.16,39.73-72.67,24.78-4.71-2.76-5.49-16.89.39-18.6,20.83-6.05,38.82-15.37,53.65-31.62,11.13-12.2,22.23-24.6,27.65-40.7,2.47-7.33,4.34-18.06-1.69-23.87-7.03-6.79-18.76-6.88-28.59-5.34-49.45,7.77-82.82,47.91-102.33,91.47-6.64,14.82-20.81,32.65-38.39,32.4-3.02-.04-6.99-1.67-8.61-3.96-1.43-2.02-1.72-6.5-.63-9.4,6.92-18.41,15.6-35.13,24.19-52.91l36.53-75.58c6.71-13.89,14.47-26.68,19.77-40.78,3.66-9.75.26-18.65-8.08-23.76-4.1-2.52-9.38-4.29-14.47-2.81-3.47,1.01-7.71,4.87-10.11,9.23-11.64,21.11-19.96,43.2-29.1,65.78-22.47,55.53-43.03,94.42-90.91,131.98-11.53,9.04-26.05,12.66-39.41,9.42-11.13-2.69-18.71-11.9-15.54-23.36,31.88-12.56,59.32-35.87,76.64-65.45,5.9-10.08,6.56-22.93-.34-31.81-8.6-11.06-22.59-12.58-35.38-7.94-38.87,14.1-68.13,42.99-84.73,80.69ZM821.66,207.23c10.12-24.47,38.12-47.76,53.88-49.41,24-2.51-4.14,34.16-9.39,41.39-11.41,15.72-30.85,27.34-50.24,31.12-1.21-5.23,3.6-17.91,5.74-23.09ZM628.03,166.18c6.09-3.95,20.35-10.76,25.91-5.78,12.99,9.37-20.06,47.77-38.79,60.3-8.24,5.51-15.26,10.62-24.79,12.36.44-28.11,14.98-52.15,37.67-66.88Z"/>
  <path class="cls-1" d="M8.37,338.51c10.57-.06,20.52.3,31.13-.44,33.93-2.35,66.94-2.3,101.04-2.76l67.52-.9c16.94-.23,33.11-1.1,49.96-2.26,15.69-1.08,30.83-4.67,44.98-10.81,10.29-4.47,16.97-11.98,23.14-20.94,16.29-23.69,14.15-42.38,36.5-51.8,4.2-1.77,8.13-4.33,13.15-2.75,31.45,44.55,68.14,66.94,115.33,91.99,17.74,9.42,35.94,16.95,55.27,22.65,10.65,3.15,22.31,4.44,32.86.88,11.29-3.81,23.8-21.56,18.46-26.75-1.2-1.17-4.41-2.97-6.47-3.3-36.55-5.72-70.86-15.86-103.79-32.85-16.89-7.11-31.29-16.58-46.56-26.47-17.35-11.24-32.51-23.69-43.71-41.71l54.82-48.25c26.17-23.03,51.16-45.88,75.48-70.86,15.59-16.02,31.21-30.67,45.26-47.96,11.84-14.57,16.84-33.43,12.01-51.57-2.07-7.78-10.68-10.71-17.53-11.45-9.65-1.05-17.17,1.95-22.17,9.91l-22.74,36.29c-14.32,22.85-125.04,149.82-156.54,166.37-1.47-6.96-.14-13.09,1.3-19.71,10.18-46.63,18.33-121.64-3.16-164.83-7.08-14.24-23.44-19.98-36.67-12.98-1.94,1.03-2.61,5.77-2.43,7.63l6.98,74.01c4.13,43.74,2.49,87.6-3,130.94-3.19,25.16-21.73,21.44-21.02,31.12.19,2.58,3.6,4.9,5.7,6.49,4.78,3.62.03,8.62-1.67,12.1-7.14,14.61-19.01,22.06-34.95,23.16-28.66,1.98-56.51,3.36-85.34,3.88-26.3.48-51.48,1.34-77.64,3.22l-57,4.11c-2.58.19-6.19-2.14-6.67-4.15-.41-1.71-.18-5.41,1-7.27,9.83-15.54,21.23-28.95,33.03-43.07,14.75-17.66,27.66-35.43,41.01-54.19,25.85-36.33,65.45-96.36,73.01-139.81,1.7-9.78-.24-19.34-6.7-26.95-6.26-7.38-36.85-35.79-38.84-15.69-.81,8.24-2.58,14.79-4.99,23.34-13.02,46.24-31.5,89.34-52.67,132-16.29,32.84-31.75,65.29-50.87,96.5-11.81,19.28-26.94,34.73-41.55,51.5-2.18,2.5-3.08,6.96-2.41,9.4.85,3.1,4.7,5,8.16,4.98Z"/>
  <path class="cls-1" d="M175.52,241.14c-3.38,17.62,7.6,32.53,25.31,34.38,10.17,1.07,19.64-1.98,29.1-6.55,21.19-10.24,38.73-26.02,53.62-44.19,4.24-5.17,29.82-36.93,16.85-40.1-1.96-.48-6.22.44-7.87,2.65-16.03,21.47-42.15,58.39-70.58,63.23-2.61.44-6.5-.79-7.76-2.56-1.2-1.69-2.09-6.4-.89-8.81,12.77-25.67,26.81-49.97,41.23-74.81,3.39-5.84,6.57-11.71,9.06-17.5,4.25-9.86-.55-17.9-9.55-21.92-10.56-4.72-22.11-2.92-28.03,8.59l-37.23,72.44c-5.89,11.45-10.91,22.9-13.27,35.16Z"/>
  <path class="cls-1" d="M274,92.94c9.13-5.45,13.98-13.35,13.59-23.87-.34-9.19-7.05-17.34-16.2-21.13-9.05-3.75-18.55-1.68-23.67,7.43-5.48,9.76-7.78,24.52-1.01,34.7,6.38,9.59,19.2,7.7,27.29,2.87Z"/>
</svg>