<?xml version="1.0" encoding="UTF-8"?>
<svg id="Layer_1" xmlns="http://www.w3.org/2000/svg" version="1.1" viewBox="0 0 806.9 134.3">
  <!-- Generator: Adobe Illustrator 30.1.0, SVG Export Plug-In . SVG Version: 2.1.1 Build 136)  -->
  <defs>
    <style>
      .st0 {
        fill: #fff;
      }
    </style>
  </defs>
  <path class="st0" d="M316.5,12.2c0-2.4.7-4.8,2.1-6.8,1.4-2,3.3-3.6,5.5-4.5C326.4,0,328.8-.2,331.2.2c2.4.5,4.6,1.7,6.3,3.4,1.7,1.7,2.9,3.9,3.3,6.3.5,2.4.2,4.9-.7,7.1s-2.5,4.1-4.5,5.5c-2,1.3-4.4,2-6.8,2s-3.2-.3-4.7-1c-1.5-.6-2.8-1.5-4-2.7-1.1-1.1-2-2.5-2.6-4s-.9-3.1-.9-4.7h0ZM522.2,106.5c2.4,0,4.8-.7,6.9-2.1,2-1.3,3.6-3.3,4.6-5.5s1.2-4.7.7-7.1c-.5-2.4-1.6-4.6-3.4-6.3-1.7-1.7-3.9-2.9-6.3-3.4-2.4-.5-4.9-.2-7.1.7-2.2.9-4.2,2.5-5.5,4.5-1.4,2-2.1,4.4-2.1,6.8s1.3,6.4,3.6,8.7c2.3,2.3,5.4,3.6,8.7,3.6h0ZM115.2,30.1c-7.6,0-14.9,2.4-21.2,6.6s-11.1,10.3-13.9,17.3c-2.8,7-3.5,14.7-2,22.1,1.5,7.4,5.2,14.2,10.6,19.5,5.4,5.3,12.2,8.9,19.6,10.4s15.1.7,22.1-2.2,12.9-7.8,17.1-14.1c4.2-6.3,6.4-13.7,6.4-21.2.2-5.1-.7-10.2-2.6-15-1.9-4.8-4.8-9.1-8.4-12.7-3.6-3.6-8-6.4-12.8-8.2-4.8-1.8-9.9-2.7-15-2.5h0ZM115.2,88.8c-10.5,0-17.9-8.4-17.9-20.4s7.3-20.4,17.9-20.4,17.9,8.4,17.9,20.4-7.1,20.4-17.9,20.4ZM292.7,70.4c-.8-1.5-1.7-2.9-2.9-4.1l-.7-.7.7-.7c1.1-1.2,2.2-2.5,3.1-3.9l19.7-29.4h-23.9l-14.8,23c-.6.7-1.4,1.2-2.3,1.5s-1.8.4-2.8.3h-3.4V13c0-8.6-5.4-9.9-11.2-9.9h-10v102.5h21.2v-30.8h2c2.4,0,4.1.3,4.8,1.6l11.7,21.9c1,2.4,2.8,4.4,5.1,5.7,2.3,1.3,4.9,1.8,7.5,1.3h16.3l-12.1-20-8-15.1h0ZM395.7,29.9c-4,0-8,.7-11.7,2.2-3.7,1.5-7,3.8-9.8,6.8l-1.3,1.3-.5-1.8c-.7-2.2-2.1-4.1-4.1-5.3-2-1.2-4.3-1.7-6.6-1.4h-9.5v73.9h21.2v-34.1c0-3,.4-6.1,1.3-9,1-3.8,3.2-7.1,6.3-9.4s6.9-3.6,10.8-3.5c6.5,0,9,3.5,9,12.5v32.2c-.2,1.5-.1,3.1.4,4.6s1.3,2.8,2.4,3.9,2.4,1.9,3.9,2.4,3,.6,4.6.3h10v-47c.1-18.7-9-28.6-26.2-28.6h0ZM329,31.6h-10v74.1h21.1v-62.8c.2-1.5.1-3.1-.4-4.5s-1.3-2.8-2.4-3.9c-1.1-1.1-2.4-1.9-3.9-2.4-1.5-.5-3-.6-4.5-.4h0ZM198,30.1c-7.6,0-14.9,2.4-21.2,6.6s-11.1,10.3-13.9,17.3-3.5,14.7-2,22.1c1.5,7.4,5.2,14.2,10.6,19.5,5.4,5.3,12.2,8.9,19.6,10.4s15.1.7,22.1-2.2,12.9-7.8,17.1-14.1c4.2-6.3,6.4-13.7,6.4-21.2.2-5.1-.7-10.2-2.6-15-1.9-4.8-4.8-9.1-8.4-12.7-3.6-3.6-8-6.4-12.8-8.2s-9.9-2.7-15-2.5h0ZM198,88.8c-10.5,0-17.9-8.4-17.9-20.4s7.4-20.4,17.9-20.4,17.9,8.4,17.9,20.4-7.1,20.4-17.9,20.4h0ZM649.5,30.1c-7.6,0-14.9,2.4-21.2,6.6s-11.1,10.3-13.9,17.3-3.5,14.7-2,22.1c1.5,7.4,5.2,14.2,10.6,19.5,5.4,5.3,12.2,8.9,19.6,10.4s15.1.7,22.1-2.2c7-2.9,13-7.8,17.1-14.1,4.2-6.3,6.4-13.7,6.4-21.2.2-5.1-.7-10.2-2.6-15-1.9-4.8-4.7-9.1-8.4-12.7s-8-6.4-12.7-8.2-9.9-2.7-15-2.5h0ZM649.5,88.8c-10.5,0-17.9-8.4-17.9-20.4s7.3-20.4,17.9-20.4,17.9,8.4,17.9,20.4-7.1,20.4-17.9,20.4ZM491.9,31.4c-1.7-.2-3.5.2-5,1-1.5.8-2.8,2-3.7,3.5l-.5,1.1-1-.8c-5.5-4.5-12.4-6.8-19.4-6.5-19.7,0-33,14.8-33,36.9s13.8,37.4,33.4,37.4c5.8.3,11.5-1.4,16.2-4.8l1.6-1.3v2.1c0,9.9-6.4,15.4-17.9,15.4-4.8,0-9.6-1-14.2-2.6-.9-.4-1.8-.7-2.8-.7s-1.9.2-2.8.7-1.6,1.1-2.2,1.8-1,1.7-1.1,2.7l-4.1,10.2,1.5.8c8,4,16.9,6,25.8,6,17.9,0,38.9-9.2,38.9-35.1V31.4h-9.7ZM466.5,85.6c-11.5,0-15.6-10.1-15.6-19.5s1-17.9,14.5-17.9,15.6,1.9,15.6,18.4-7.9,19-14.5,19h0ZM58.7,53.1l-3.1-1.7,2.7-2.2c2.7-2.4,4.9-5.4,6.4-8.7,1.5-3.3,2.2-7,2.1-10.6,0-16.1-12.5-26.5-31.8-26.5H10.4c-2.8,0-5.4,1.3-7.3,3.2C1.1,8.5,0,11.1,0,13.9v91.4h35.3c21.5,0,35.4-11.7,35.4-29.8.2-4.5-.8-8.9-2.9-12.8-2.1-3.9-5.2-7.2-9.1-9.5h0ZM19.6,27.2c0-4.8,2-7,6.4-7.3h9c1.6-.1,3.2,0,4.8.6,1.5.6,2.9,1.4,4.1,2.6s2,2.5,2.6,4.1c.5,1.5.8,3.2.6,4.8.2,1.6,0,3.3-.5,4.9s-1.4,3-2.5,4.2-2.5,2.1-4,2.8c-1.5.6-3.2.9-4.8.8h-15.5s0-17.4,0-17.4ZM36.8,88h-17.2v-20.5c0-4.5,1.8-6.7,5.5-7.2h11.7c3.5.2,6.9,1.8,9.3,4.3,2.4,2.6,3.8,6,3.8,9.5s-1.4,7-3.8,9.5-5.8,4.1-9.3,4.3h0ZM782.4,30.2c-4.4,0-8.7,1-12.6,2.9s-7.4,4.7-10.1,8.1l-1.5,2-1.2-2.2c-1.9-3.5-4.8-6.4-8.4-8.3s-7.5-2.8-11.6-2.5c-3.7,0-7.3.9-10.6,2.4-3.3,1.5-6.3,3.7-8.8,6.4l-2,2.2-.8-2.8c-.7-2.1-2.1-3.9-4-5s-4.1-1.6-6.3-1.3h-9v73.7h20v-32.5c0-2.9.4-5.8,1.1-8.6,1.9-7.9,7.2-16.4,16.1-15.5,5.5.5,8.2,4.8,8.2,13v43.7h20.3v-32.5c0-3,.3-6.1,1.1-9,1.6-7.5,7.1-15.2,15.7-15.2s8.5,3.5,8.5,13v33c0,7.4,3.3,10.8,10.8,10.8h9.6v-47.1c0-18.8-8.3-28.4-24.5-28.4h0ZM599.3,80c-5.3,5.5-12.5,8.9-20.1,9.5-2.8.2-5.5-.2-8.1-1.2-2.6-1-5-2.5-6.9-4.4-2-1.9-3.5-4.3-4.5-6.9-1-2.6-1.5-5.3-1.3-8.1-.2-2.7.1-5.5,1-8.1.9-2.6,2.3-5,4.2-7,1.9-2,4.2-3.6,6.7-4.6,2.5-1,5.3-1.5,8-1.5,3.8,0,8.1,1.3,8.7,3.6v.4c.4,1.6,1.4,2.9,2.7,3.9,1.3,1,2.9,1.5,4.5,1.5h11v-9.6c0-12.7-16.2-17.4-26.9-17.4-23.3,0-40.3,16.3-40.3,38.6s16.7,38.6,39.7,38.6c5.9,0,11.7-1.3,17.1-3.7,5.4-2.4,10.2-5.9,14.2-10.2l-8.3-14.7-1.4,1.3h0Z"/>
</svg>