<?xml version="1.0" encoding="UTF-8"?>
<svg id="Layer_1" data-name="Layer 1" xmlns="http://www.w3.org/2000/svg" viewBox="0 0 911.78 355.86">
  <defs>
    <style>
      .cls-1 {
        fill: #308891;
      }
    </style>
  </defs>
  <path class="cls-1" d="M911.1,240.47c-.75-1.39-2.43-3-6.19-2.86-6.9.27-11.25,7.82-14.13,12.81l-.5.87c-3.58,6.15-7.63,11.73-12.73,17.57-5.49,6.27-11.54,12.4-18.01,18.22-1.27,1.14-2.59,2.43-4,3.79-4.32,4.18-9.22,8.93-13.75,10.82-1.74.73-3.43,1.49-5.06,2.23-7.37,3.34-13.74,6.22-21.42,4.09-8.2-4.53-12.54-16.68-9.3-25.93,1.65-.97,7.68-2.75,10.67-3.64,2.59-.77,4.09-1.21,4.88-1.55,5.81-2.48,11.47-5.28,16.82-8.33,10.77-6.14,20.56-13.4,29.09-21.6,18.72-17.98,33.63-43.94,19.31-62.89-4.74-6.27-15.79-11.79-32.59-8.45-16.71,3.32-31.88,12.33-46.35,27.55-1.81,1.9-3.64,3.79-5.47,5.67-5.53,5.7-11.25,11.59-16.34,17.95-4.44,5.54-7.75,11.59-10.95,17.44-1.43,2.61-2.91,5.31-4.46,7.92l-1.46,2.46c-4.85,8.18-9.43,15.9-15.84,22.91l-.46.51c-5.56,6.08-13.95,15.27-21.52,17.95-3.97,1.4-5.74.71-6.72.07l-.25-.14c-1.46-.73-1.62-1.75-1.51-5.43l.02-.53,17.45-45.09c15.95-42.64,36.48-84.24,61.02-123.63l.2-.32.1-.36c2.65-9.87,1.69-17.52-2.95-23.38l-.34-.35c-7.36-6.29-15.06-8.35-21.67-5.8l-.89.34-41.72,81.04c-9.47,16.78-16.68,33.62-24.31,51.46-2.17,5.07-4.41,10.31-6.69,15.51-10.99,18.29-27.07,34.8-49.14,50.46l-.34.29c-7.85,8.04-22.17,15.88-34.31,15.38-6.06-.27-10.95-2.62-14.54-7.01-6-7.33-5.8-21.52.22-29.89,25.54-.78,49.09-11.77,68.2-31.85,13.7-11.04,20.56-28.02,18.37-45.46-.91-7.27-5.75-14.15-12.32-17.53-8.58-4.42-15.13-2.5-22.72-.29-10.79,3.15-21.23,7.98-30.19,13.98-19.17,12.83-36.15,32.05-45.42,51.4-7.39,15.42-10.09,29.55-8.02,41.99,1.19,7.18,2.39,13.63,5.01,19.81,3.11,7.34,6.58,9.25,12.44,11.99.98.46,1.95.92,2.9,1.38,5.67,2.71,11.03,5.27,17.65,6.43,10.99,1.92,18.59,1.65,23.24-.83,19.56-10.42,36.12-23.17,52.44-36.56-1.12,11,.41,23.23,12.47,31.88l.13.09c12.2,7.66,26.91,6.89,37.55-1.95,8.43-4.74,13.81-11.75,19.51-19.18,2.59-3.38,5.25-6.84,8.26-10.14,2.95,17.17,11.05,28.47,24.64,34.44,8.42,6.06,17.93,9.12,27.7,9.12,7.84,0,15.86-1.97,23.63-5.93,14.6-6.24,28.31-17.5,40.73-33.49,3.04-3.91,6.34-7.76,9.53-11.48,4.48-5.22,9.11-10.62,13.21-16.39l.06-.09c6.83-9.63,9.1-15.8,7.13-19.43ZM807.65,266.12c.23-5.97,1.82-13.09,3.45-17.85,4.16-12.18,11.12-24.11,19.61-33.61,8.13-9.09,16.86-17.2,26.34-17.2,2.06,0,4.16.38,6.29,1.22,3.18,1.25,5.34,3.35,6.43,6.24,1.57,4.18.84,9.88-1.94,15.26-2.74,5.29-6.18,9.64-11.51,14.55-1.2,1.11-2.53,2.28-4.18,3.68-8.42,7.17-14.94,12.14-21.78,16.62-1.74,1.14-16.34,8.28-22.7,11.07ZM610.33,256.01c10.31-24.6,26.34-46.3,45.44-61.41,5.34-3.27,8.97-3.96,12.48-2.35,1.6.98,6.22,4.34,5.81,10.06-1.04,11.25-5.21,20.86-12.76,29.36-16.2,16.05-33.33,24.22-50.96,24.34Z"/>
  <path class="cls-1" d="M567.3,263.34l-.29-.46-24.66-16.53c-1.65-5.4.24-10.59,2.58-15.41,8.27-13.58,14.82-27.18,21.92-42.28,7.72-16.43,16.3-32.54,25.5-47.89,4.41-7.36,9.62-14.4,14.66-21.22,4.56-6.17,9.28-12.54,13.42-19.16,2.07-3.32,3.79-6.9,5.34-10.26,3.65-7.91,2.15-15.85-3.82-20.24-4.22-3.11-8.7-4.23-13.31-3.35-12.17,2.35-22.03,18.25-28.56,28.77-1.06,1.71-1.98,3.19-2.79,4.43-13.81,21-24.5,39.83-32.68,57.57-.09.19-26.48,57.39-32.11,69.59l-34.86-16.16.54-.65c14.85-17.92,28.87-34.85,39.86-54.72,6.56-11.72,13.46-25.88,14.93-42.15,3.59-20.11-3.02-39.04-18.61-53.33-8.72-8-25.15-10.92-37.62-10.99-6.68-.05-13.55,1-20.43,3.08-17.66,5.34-33.78,17.07-47.23,27.84-19.56,15.67-37.13,35.14-52.2,57.85-7.84,10.37-10.96,20.54-9.53,31.08l.12.89.66.61c3.01,2.79,6.28,3.93,9.74,3.39l.31-.05.29-.12c2.35-1.01,5.29-2.54,7.38-5.48,7.71-8,16.34-17.98,22.13-31.36,8.35-19.3,22.24-36.74,40.17-50.43,14.08-10.75,29.44-20.88,46.44-22.27,14.87-1.23,25.51,15.39,27.47,27.84,3.58,22.75-7.97,39.23-20.2,56.67-4.22,6.02-8.59,12.25-12.34,18.8-7.92,13.83-15.75,25.05-24.56,35.18-10.21-3.01-19.24-5.06-29.06-6.59-15.4-4.58-29.2-4.49-42.11.24-6.4,2.14-10.36,8.82-8.65,14.61,2.01,6.54,7.27,9.38,15.65,8.46,3.63-.09,7.28-.31,10.81-.52,12.03-.71,23.45-1.38,35.53,2.19-33.71,43.75-78.63,75.79-126.73,90.37-28.88,7.55-56.8,12.41-84.24,14.62l-.21-1s-55.98,2.59-143.38-21.75c-17.82-4.96-19.42-7.02-19.91-9.02-.41-1.71-.18-5.41,1-7.27,2.85-4.51,5.85-8.83,8.94-13.05l.14-.15.18-.2c4.42-5.52,8.75-11.12,13.04-16.76,3.52-4.29,7.1-8.57,10.73-12.92,14.75-17.66,27.66-35.43,41.01-54.19,25.85-36.33,65.45-96.36,73.01-139.81,1.7-9.78-.24-19.34-6.7-26.95-6.26-7.38-36.85-35.79-38.84-15.69-.81,8.24-2.58,14.79-4.99,23.34-13.02,46.24-31.5,89.34-52.67,132-16.02,32.29-31.25,64.2-49.93,94.94-3.77,5.06-7.77,9.83-12,14.25-4.65,4.85-9.21,9.9-13.62,14.78-3.08,3.41-6.27,6.93-9.44,10.35-4.84,5.2-8.46,9.85-10.75,13.81-2,3.44-2.35,6.48-1.04,9.02,2.65,5.15,11.04,5.94,17.16,6.51.79.07,1.51.14,2.16.21,4.88.55,10.02,2,14.99,3.41.85.24,1.69.48,2.53.71,14.34,3.98,29.24,6.72,43.65,9.38,5.72,1.06,11.64,2.15,17.43,3.3,33.47,6.66,69.53,12.79,106.86,12.79.9,0,1.8,0,2.7-.01l54.76-6.14.12-.02c32.45-5.27,62.06-13.29,88.01-23.83l36.66-21.18.27-.18c28.72-22,52.05-49.55,71.14-73.83,15.55,5.14,28.84,10.33,42.13,18.17-.75,1.99-1.51,3.99-2.27,5.93-2.3,5.94-4.67,12.08-6.53,18.74-9.62,23.89-11.55,46.12-5.72,66.14,1.74,5.39,5.22,8.55,9.56,8.64,4.91.13,9.76-3.78,11.96-9.69,2.02-5.42,2.55-11.12,3.06-16.64.15-1.66.31-3.38.51-5.04,1.67-14,4.03-25.42,7.2-34.89l.12-.36c5.04-15.11,8.85-18.31,11.17-18.31.02,0,.03,0,.04,0,1.99.04,6.42,3.18,9.36,5.26,2.18,1.54,4.23,3,5.89,3.8l.98.48c6.14,2.99,13.07,6.07,17.65,4.67,2.47-.75,4.6-2.56,6-5.09l.49-.89-.27-.98c-.7-2.53-1.64-4.64-3.25-7.27Z"/>
  <path class="cls-1" d="M197.95,175.47l-36.41,69.91-1.14,3.05c-4.14,11.32-8.43,23.02-7.29,35.4.38,15.22,10.35,25.9,24.86,26.62,2.02.26,4.04.39,6.04.39,12.29,0,23.94-4.87,32.68-13.81,14.7-11.51,26.72-25.93,34.78-41.71l.21-.42.05-.46c.1-.94.41-1.92.71-2.88.77-2.42,1.93-6.06-1.82-8.73-3.04-2.78-7.92-2.16-11.7,1.52l-.22.24c-2.12,2.68-4.23,5.37-6.34,8.05-4.15,5.28-8.45,10.74-12.71,16.08-2.36,2.96-5.17,5.32-8.13,7.82-2.18,1.83-4.43,3.73-6.54,5.91-6.56,6.79-13.57,13.19-20.86,10.47-2.49-.93-3.67-2.81-3.61-5.75.14-6.2,4.56-13.87,8.12-20.04,1.11-1.93,2.17-3.75,3.05-5.45,3.16-6.07,6.61-12.12,9.95-17.97,2.12-3.72,4.32-7.57,6.42-11.4,6.33-11.5,13.66-24.94,20.48-38.82,2.87-4.99,3.65-10.62,2.14-15.47-1.3-4.17-4.25-7.52-8.31-9.47-8.86-5.04-18.66-2.27-24.41,6.92Z"/>
  <path class="cls-1" d="M228.23,148.52s.05,0,.07,0c4.5-.02,8.94-2.06,11.88-5.46,1.5-1.73,2.71-3.81,3.7-6.36,1.21-3.1,1.88-6.38,2.53-9.54.24-1.15.47-2.28.72-3.36,3.48-14.93.01-25.48-9.53-28.94-4.07-1.47-7.8-1.27-11.11.61-5.57,3.16-9.45,10.74-11.86,23.18-1.3,6.71-2.67,18.88,2.77,25.03,2.76,3.12,6.6,4.84,10.82,4.84Z"/>
</svg>