<?xml version="1.0" encoding="UTF-8"?>
<svg id="Layer_1" xmlns="http://www.w3.org/2000/svg" version="1.1" viewBox="0 0 904.4 363.5">
  <!-- Generator: Adobe Illustrator 30.1.0, SVG Export Plug-In . SVG Version: 2.1.1 Build 136)  -->
  <defs>
    <style>
      .st0 {
        fill: #fff;
      }
    </style>
  </defs>
  <path class="st0" d="M547.3,224.1c-6.9,15.7-8.6,33.3-.2,48.4,15.5,27.9,53.7,28.6,80.3,18.4,20.3-7.8,38.4-18.2,55.5-32.5,2.5,3.5,2.4,8.5,3.8,12.1,7.2,18.3,27.5,24.1,44.4,15.8,14.1-6.9,27.4-12.7,39.1-23.2,5.4-4.9,13.7,15.9,31.9,21.8,29.6,9.6,59.7-.4,80.9-21.9,7.1-7.2,13.1-14.5,19.6-22.5,2.1-2.6,3.1-8.8-.8-9.9-4-1.2-9.4,2.4-12.2,5.6-16.8,19.3-47.2,39.7-72.7,24.8-4.7-2.8-5.5-16.9.4-18.6,20.8-6.1,38.8-15.4,53.7-31.6,11.1-12.2,22.2-24.6,27.7-40.7,2.5-7.3,4.3-18.1-1.7-23.9-7-6.8-18.8-6.9-28.6-5.3-49.5,7.8-82.8,47.9-102.3,91.5-6.6,14.8-20.8,32.7-38.4,32.4-3,0-7-1.7-8.6-4-1.4-2-1.7-6.5-.6-9.4,6.9-18.4,15.6-35.1,24.2-52.9l36.5-75.6c6.7-13.9,14.5-26.7,19.8-40.8,3.7-9.8.3-18.7-8.1-23.8-4.1-2.5-9.4-4.3-14.5-2.8-3.5,1-7.7,4.9-10.1,9.2-11.6,21.1-20,43.2-29.1,65.8-22.5,55.5-43,94.4-90.9,132-11.5,9-26,12.7-39.4,9.4-11.1-2.7-18.7-11.9-15.5-23.4,31.9-12.6,59.3-35.9,76.6-65.4,5.9-10.1,6.6-22.9-.3-31.8-8.6-11.1-22.6-12.6-35.4-7.9-38.9,14.1-68.1,43-84.7,80.7h0ZM821.7,207.2c10.1-24.5,38.1-47.8,53.9-49.4,24-2.5-4.1,34.2-9.4,41.4-11.4,15.7-30.8,27.3-50.2,31.1-1.2-5.2,3.6-17.9,5.7-23.1h0ZM628,166.2c6.1-3.9,20.3-10.8,25.9-5.8,13,9.4-20.1,47.8-38.8,60.3-8.2,5.5-15.3,10.6-24.8,12.4.4-28.1,15-52.1,37.7-66.9Z"/>
  <path class="st0" d="M8.4,338.5c10.6,0,20.5.3,31.1-.4,33.9-2.4,66.9-2.3,101-2.8l67.5-.9c16.9-.2,33.1-1.1,50-2.3,15.7-1.1,30.8-4.7,45-10.8,10.3-4.5,17-12,23.1-20.9,16.3-23.7,14.1-42.4,36.5-51.8,4.2-1.8,8.1-4.3,13.1-2.8,31.5,44.6,68.1,66.9,115.3,92,17.7,9.4,35.9,17,55.3,22.6,10.7,3.1,22.3,4.4,32.9.9,11.3-3.8,23.8-21.6,18.5-26.8-1.2-1.2-4.4-3-6.5-3.3-36.5-5.7-70.9-15.9-103.8-32.9-16.9-7.1-31.3-16.6-46.6-26.5-17.4-11.2-32.5-23.7-43.7-41.7l54.8-48.2c26.2-23,51.2-45.9,75.5-70.9,15.6-16,31.2-30.7,45.3-48,11.8-14.6,16.8-33.4,12-51.6-2.1-7.8-10.7-10.7-17.5-11.4-9.7-1-17.2,2-22.2,9.9l-22.7,36.3c-14.3,22.8-125,149.8-156.5,166.4-1.5-7-.1-13.1,1.3-19.7,10.2-46.6,18.3-121.6-3.2-164.8-7.1-14.2-23.4-20-36.7-13-1.9,1-2.6,5.8-2.4,7.6l7,74c4.1,43.7,2.5,87.6-3,130.9-3.2,25.2-21.7,21.4-21,31.1.2,2.6,3.6,4.9,5.7,6.5,4.8,3.6,0,8.6-1.7,12.1-7.1,14.6-19,22.1-35,23.2-28.7,2-56.5,3.4-85.3,3.9-26.3.5-51.5,1.3-77.6,3.2l-57,4.1c-2.6.2-6.2-2.1-6.7-4.1-.4-1.7-.2-5.4,1-7.3,9.8-15.5,21.2-29,33-43.1,14.8-17.7,27.7-35.4,41-54.2,25.9-36.3,65.4-96.4,73-139.8,1.7-9.8-.2-19.3-6.7-27-6.3-7.4-36.8-35.8-38.8-15.7-.8,8.2-2.6,14.8-5,23.3-13,46.2-31.5,89.3-52.7,132-16.3,32.8-31.8,65.3-50.9,96.5-11.8,19.3-26.9,34.7-41.5,51.5-2.2,2.5-3.1,7-2.4,9.4.9,3.1,4.7,5,8.2,5h0Z"/>
  <path class="st0" d="M175.5,241.1c-3.4,17.6,7.6,32.5,25.3,34.4,10.2,1.1,19.6-2,29.1-6.5,21.2-10.2,38.7-26,53.6-44.2,4.2-5.2,29.8-36.9,16.9-40.1-2-.5-6.2.4-7.9,2.6-16,21.5-42.1,58.4-70.6,63.2-2.6.4-6.5-.8-7.8-2.6-1.2-1.7-2.1-6.4-.9-8.8,12.8-25.7,26.8-50,41.2-74.8,3.4-5.8,6.6-11.7,9.1-17.5,4.2-9.9-.5-17.9-9.6-21.9-10.6-4.7-22.1-2.9-28,8.6l-37.2,72.4c-5.9,11.4-10.9,22.9-13.3,35.2h0Z"/>
  <path class="st0" d="M274,92.9c9.1-5.4,14-13.3,13.6-23.9-.3-9.2-7-17.3-16.2-21.1-9-3.8-18.6-1.7-23.7,7.4-5.5,9.8-7.8,24.5-1,34.7,6.4,9.6,19.2,7.7,27.3,2.9Z"/>
</svg>